<svg width="756" height="277" viewBox="418 0 756 277" xmlns="http://www.w3.org/2000/svg">
<path d="M1018.66 71L1066.62 237.178L1114.72 71H1163.8C1164.92 104.376 1166.05 135.04 1167.17 162.994C1167.45 170.94 1167.77 178.934 1168.15 186.974C1168.52 194.92 1168.9 202.727 1169.27 210.393C1169.64 217.966 1170.02 225.211 1170.39 232.129C1170.77 238.954 1171.09 245.218 1171.37 250.921C1171.75 256.624 1172.12 261.625 1172.5 265.926C1172.87 270.133 1173.24 273.405 1173.62 275.742H1135.75L1132.39 116.857L1087.37 275.742H1046L1000.71 117.277L996.923 275.742H959.059C959.34 273.405 959.667 270.133 960.041 265.926C960.415 261.625 960.742 256.624 961.023 250.921C961.397 245.218 961.771 238.954 962.144 232.129C962.518 225.211 962.892 217.966 963.266 210.393C963.64 202.727 963.968 194.92 964.248 186.974C964.622 178.934 964.996 170.94 965.37 162.994C966.492 135.04 967.66 104.376 968.876 71H1018.66Z" fill="currentColor"></path>
<path d="M872.955 243.488C886.231 243.488 897.964 243.395 908.154 243.208C918.438 243.021 926.291 242.413 931.714 241.385V275.742H800.594C801.623 270.133 802.231 262.046 802.418 251.482C802.605 240.824 802.698 228.577 802.698 214.74V132.002C802.698 118.165 802.605 105.965 802.418 95.4008C802.231 84.743 801.623 76.6094 800.594 71H842.665V243.488H872.955Z" fill="currentColor"></path>
<path d="M749.409 153.037V184.59H672.701V243.488H708.881C722.344 243.488 733.516 243.395 742.397 243.208C751.372 243.021 758.618 242.413 764.134 241.385V275.742H630.63C631.659 270.133 632.267 262.046 632.454 251.482C632.641 240.824 632.734 228.577 632.734 214.74V132.002C632.734 118.165 632.641 105.965 632.454 95.4008C632.267 84.743 631.659 76.6094 630.63 71H759.927V103.254H672.701V153.037H749.409Z" fill="currentColor"></path>
<path d="M584.914 71C583.886 76.6094 583.278 84.6027 583.091 94.9801C582.904 105.264 582.811 117.371 582.811 131.301V215.441C582.811 229.371 582.904 241.525 583.091 251.902C583.278 262.186 583.886 270.133 584.914 275.742H542.844V186.693H460.105V275.742H418.035C419.064 270.133 419.671 262.186 419.858 251.902C420.045 241.525 420.139 229.371 420.139 215.441V131.301C420.139 117.371 420.045 105.264 419.858 94.9801C419.671 84.6027 419.064 76.6094 418.035 71H460.105V155.141H542.844V71H584.914Z" fill="currentColor"></path>
</svg>