<svg width="347" height="347" viewBox="0 0 347 347" fill="none" xmlns="http://www.w3.org/2000/svg">
<path d="M170.892 0.00365077C212.422 -0.243875 249.412 12.0925 281.57 37.9207C314.603 64.4518 335.203 98.6959 343.579 140.301C346.918 156.885 347.604 173.584 345.865 190.323C342.167 225.904 328.793 257.54 305.729 284.9C278.294 317.445 243.356 337.283 201.453 344.213C161.29 350.855 123.244 343.938 87.7692 323.829C54.5586 305.003 30.5045 277.766 14.8726 243.084C7.0287 225.681 2.46165 207.369 0.747199 188.31C-2.29226 154.52 3.90905 122.49 19.9404 92.7162C45.6837 44.9048 85.472 15.2153 138.485 3.41763C149.019 1.07327 159.752 -0.0602469 170.892 0.00365077ZM307.46 122.468C301.511 107.018 293.289 92.9414 282.798 80.7353C263.384 100.088 244.222 119.19 224.908 138.443C229.23 144.624 231.99 151.836 233.713 159.435C234.244 161.779 235.339 162.378 237.605 162.362C250.907 162.266 264.211 162.311 277.514 162.31C289.141 162.309 300.768 162.241 312.394 162.361C315.295 162.391 316.502 161.43 316.044 158.529C315.931 157.81 316.029 157.059 315.935 156.335C314.447 144.88 311.729 133.729 307.46 122.468ZM162.522 249.665C162.538 245.685 162.369 241.692 162.636 237.729C162.806 235.21 161.962 234.132 159.555 233.643C153.242 232.36 147.19 230.143 141.917 226.48C138.878 224.369 137.277 224.957 134.906 227.353C117.813 244.625 100.576 261.755 83.4003 278.945C82.4584 279.888 81.3397 280.723 80.8474 282.199C81.1746 282.566 81.4762 282.988 81.8577 283.319C88.6149 289.171 96.0144 294.115 103.788 298.48C120.515 307.872 138.462 313.577 157.509 315.769C162.301 316.321 162.531 315.987 162.531 311.258C162.528 290.937 162.525 270.616 162.522 249.665ZM133.502 35.5196C114.987 40.9706 98.1649 49.6433 83.1447 61.8091C80.9895 63.5548 80.8243 64.8005 82.8863 66.7877C88.3161 72.0205 93.5699 77.4359 98.89 82.7824C111.231 95.1847 123.598 107.562 135.877 120.026C137.48 121.652 138.611 121.938 140.626 120.602C145.715 117.225 151.305 114.852 157.223 113.273C162.571 111.847 162.542 111.821 162.538 106.283C162.524 82.2863 162.476 58.2896 162.579 34.2935C162.592 31.2048 161.637 30.2345 158.605 30.5593C150.253 31.4538 142.069 33.1329 133.502 35.5196ZM243.739 297.963C250.31 294.231 256.499 289.937 262.445 285.281C266.4 282.184 266.413 282.077 262.823 278.485C245.427 261.081 228.018 243.689 210.67 226.238C209.242 224.801 208.158 224.48 206.384 225.636C201.269 228.972 195.752 231.488 189.841 233.086C184.209 234.61 184.24 234.599 184.244 240.46C184.259 263.922 184.251 287.383 184.253 310.845C184.253 311.787 184.291 312.731 184.26 313.672C184.207 315.278 184.967 315.976 186.553 315.873C187.597 315.805 188.656 315.871 189.69 315.74C208.695 313.328 226.626 307.621 243.739 297.963ZM46.006 162.303C67.0591 162.311 88.1124 162.282 109.165 162.378C111.526 162.388 112.421 161.604 112.951 159.342C114.461 152.901 116.507 146.596 120.282 141.085C121.957 138.639 121.453 137.166 119.502 135.221C102.514 118.292 85.6207 101.268 68.6911 84.2795C64.4167 79.9904 64.3384 79.9524 60.5512 84.7762C50.0352 98.1708 42.2179 113.016 36.9455 129.201C33.8262 138.777 31.779 148.578 30.7156 158.599C30.3998 161.576 31.4961 162.507 34.3816 162.349C38.0366 162.149 41.7109 162.303 46.006 162.303ZM275.014 184.122C262.437 184.104 249.859 184.147 237.283 184.011C235.021 183.986 234.13 184.772 233.668 186.866C232.121 193.874 229.581 200.507 225.573 206.504C224.617 207.935 224.883 208.851 226.089 209.985C228.91 212.641 231.589 215.448 234.33 218.189C249.448 233.302 264.594 248.388 279.654 263.56C281.574 265.494 282.718 265.708 284.556 263.411C302.229 241.329 312.692 216.266 315.958 188.188C316.394 184.442 316.068 184.125 312.119 184.121C299.96 184.11 287.802 184.12 275.014 184.122ZM200.461 117.464C202.375 118.545 204.378 119.498 206.179 120.743C207.855 121.901 208.898 121.802 210.407 120.275C223.673 106.858 237.034 93.5343 250.386 80.2024C255.63 74.9665 260.923 69.7798 266.107 64.6563C265.389 63.1817 264.415 62.5361 263.526 61.8256C253.737 54.005 243.226 47.3933 231.732 42.3169C218.017 36.2594 203.75 32.3593 188.863 30.6918C184.564 30.2103 184.258 30.4995 184.253 34.9377C184.246 40.9132 184.267 46.8887 184.248 52.864C184.187 71.9413 184.151 91.0189 183.987 110.095C183.971 112.062 184.961 112.358 186.376 112.64C191.127 113.589 195.661 115.188 200.461 117.464ZM78.0863 252.49C92.0893 238.499 106.094 224.51 120.092 210.514C121.177 209.43 122.587 208.523 121.267 206.585C117.085 200.447 114.477 193.626 112.906 186.403C112.525 184.651 111.661 184.017 109.87 184.022C84.9411 184.089 60.0123 184.092 35.0836 184.134C31.3766 184.141 30.3987 185.31 30.8977 188.952C32.3911 199.85 34.5989 210.574 38.3822 220.946C44.0645 236.523 51.8758 250.881 62.4318 263.715C63.887 265.485 64.9989 265.722 66.6884 263.937C70.2872 260.136 74.0642 256.503 78.0863 252.49ZM142.381 163.916C141.438 167.042 140.804 170.238 140.935 173.502C141.813 195.405 160.992 208.488 178.949 205.236C196.912 201.984 209.568 183.161 204.996 165.526C201.443 151.821 188.724 141.149 175.432 140.721C159.989 140.222 147.396 148.926 142.381 163.916Z" fill="url(#paint0_linear_24_14)"></path>
<defs>
<linearGradient id="paint0_linear_24_14" x1="3.4507e-06" y1="173" x2="347" y2="173" gradientUnits="userSpaceOnUse">
<stop stop-color="#14D67F"></stop>
<stop offset="1" stop-color="#00AF60"></stop>
</linearGradient>
</defs>
</svg>